# xmcd CD database file
#
# Track frame offsets:
#	150
#	13719
#	29303
#	46090
#	62321
#	79454
#	95370
#	111750
#	131952
#	146504
#	170633
#	190193
#	206593
#	223911
#	237182
#	256605
#	272732
#	289384
#
# Disc length: 4006 seconds
#
# Revision: 1
# Processed by: cddbd v1.5.2PL0 Copyright (c) Steve Scherf et al.
# Submitted via: CDex 1.51
#
DISCID=090fa412
DTITLE=Various Artist - VARIOUS RPM T871
DYEAR=2006
DGENRE=Various
TTITLE0=Daniel Powter - Love You Lately
TTITLE1=Aaron Neville - It's All Right
TTITLE2=DHT f/ Edmee - I Go Crazy
TTITLE3=Pink - U and Ur Hand
TTITLE4=Nick Cannon - It's Your Birthday
TTITLE5=Barenaked Ladies - Wind It Up
TTITLE6=Stacie Orrico - I'm Not Missing You 
TTITLE7=Ciara - Promise
TTITLE8=Red Jumpsuit Apparatus - Face Down
TTITLE9=Outkast f/ Lil Wayne and Snoop Dogg - Hollywood Divorce 
TTITLE10=Brooke Valentine f/ Dem Franchize Boyz - Pimped Out 
TTITLE11=Game - Let's Ride
TTITLE12=Gretchen Wilson f/ John Rich - Come To Bed
TTITLE13=George Strait - It Just Comes Natural
TTITLE14=Jason Michael Carroll - Alyssa Lies
TTITLE15=Blake Shelton - Don't Make Me
TTITLE16=Gary Nichols - I Can't Love You Anymore
TTITLE17=Cut Chemist - The Audience Is Listening Theme Song
EXTD=YEAR: 2006
EXTT0=
EXTT1=
EXTT2=
EXTT3=
EXTT4=
EXTT5=
EXTT6=
EXTT7=
EXTT8=
EXTT9=
EXTT10=
EXTT11=
EXTT12=
EXTT13=
EXTT14=
EXTT15=
EXTT16=
EXTT17=
PLAYORDER=
